<?xml version="1.0" encoding="UTF-8" standalone="no"?>
<!-- Created with Inkscape (http://www.inkscape.org/) -->

<svg
   xmlns:dc="http://purl.org/dc/elements/1.1/"
   xmlns:cc="http://creativecommons.org/ns#"
   xmlns:rdf="http://www.w3.org/1999/02/22-rdf-syntax-ns#"
   xmlns:svg="http://www.w3.org/2000/svg"
   xmlns="http://www.w3.org/2000/svg"
   version="1.1"
   width="354"
   height="318.62396"
   viewBox="0 0 283.20001 254.89916"
   id="svg3046">
  <metadata
     id="metadata3059">
    <rdf:RDF>
      <cc:Work
         rdf:about="">
        <dc:format>image/svg+xml</dc:format>
        <dc:type
           rdf:resource="http://purl.org/dc/dcmitype/StillImage" />
        <dc:title></dc:title>
      </cc:Work>
    </rdf:RDF>
  </metadata>
  <defs
     id="defs3057" />
  <g
     transform="matrix(2.3110848,0,0,2.3110848,-2.0977356,-2.0977389)"
     id="g3879">
    <g
       transform="translate(1.6,46.509537)"
       id="surface1">
      <path
         d="M 31.1875,0 C 13.90625,0.4375 0,14.613281 0,32 0,49.664063 14.335938,64 32,64 49.664063,64 64,49.664063 64,32 64,14.335938 49.664063,0 32,0 31.722656,0 31.460938,-0.0078125 31.1875,0 z M 31.15625,5.5 C 31.441406,5.492188 31.714844,5.5 32,5.5 46.628906,5.5 58.5,17.371094 58.5,32 58.5,46.628906 46.628906,58.5 32,58.5 17.371094,58.5 5.5,46.628906 5.5,32 5.5,17.65625 16.921875,5.953125 31.15625,5.5 z"
         id="path3049" />
      <path
         d="m 36.625,15.9375 c 0,2.550781 -2.070312,4.625 -4.625,4.625 -2.554687,0 -4.625,-2.074219 -4.625,-4.625 0,-2.554687 2.070313,-4.625 4.625,-4.625 2.554688,0 4.625,2.070313 4.625,4.625 z"
         id="path3051" />
      <path
         d="m 27.214844,52.6875 9.570312,0 0,-15.375 2.894532,0 c 0,0 -0.0039,-10.992187 0,-12.722656 -0.0039,-0.457031 0.03906,-1.363281 -0.621094,-2.027344 C 38.394531,21.902344 37.5,21.941406 37.03125,21.941406 c -0.472656,0.0039 -9.589844,0.0039 -10.0625,0 -0.46875,0 -1.363281,-0.03906 -2.027344,0.621094 -0.660156,0.664063 -0.617187,1.570313 -0.621093,2.027344 0.0039,1.730469 0,12.722656 0,12.722656 l 2.894531,0 z"
         id="path3053" />
    </g>
    <g
       id="g3842">
      <path
         d="m 82.850002,3.7999968 c -20.778201,0 -37.675001,11.4830162 -37.675001,25.5750002 0,6.244722 3.399044,12.275016 9.575,16.975001 l 1.1,0.825 -0.275,1.35 c -0.443488,2.222428 -1.201656,4.259102 -2.275,6.05 -0.339841,0.565075 -0.723368,1.129857 -1.125,1.675 3.61269,-1.640411 7.4167,-3.257405 10.850001,-4.55 l 0.775,-0.3 0.775,0.3 c 5.565037,2.111804 11.878794,3.225 18.275,3.225 20.778208,0 37.699998,-11.458016 37.699998,-25.550001 0,-14.091984 -16.92179,-25.5750002 -37.699998,-25.5750002 z"
         id="rect3054"
         style="fill:#ffffff;fill-opacity:1;fill-rule:evenodd;stroke:#ffffff;stroke-width:1.10000002;stroke-miterlimit:4;stroke-opacity:1" />
      <path
         d="m 82.861164,1.6 c 22.032926,0 39.894066,12.432638 39.894066,27.767387 0,15.33475 -17.86114,27.767388 -39.894066,27.767388 -6.907464,0 -13.40333,-1.222834 -19.069025,-3.372509 -11.1819,4.209656 -26.44888,12.160565 -26.44888,12.160565 0,0 9.95508,-5.635797 14.059096,-12.478482 1.048428,-1.74904 1.662336,-3.582792 2.014137,-5.343792 C 46.928599,43.162383 42.967097,36.586788 42.967097,29.367387 42.967097,14.032638 60.828238,1.6 82.861164,1.6 m 0,2.2124614 c -20.778201,0 -37.682602,11.4639386 -37.682602,25.5559226 0,6.244722 3.40141,12.272185 9.577366,16.97217 l 1.100251,0.838144 -0.270079,1.355382 c -0.443489,2.222428 -1.212868,4.257493 -2.286211,6.048391 -0.339842,0.565075 -0.714565,1.123173 -1.116196,1.668316 3.61269,-1.640411 7.3958,-3.264876 10.829101,-4.557471 l 0.782335,-0.294995 0.782334,0.296988 c 5.565038,2.111804 11.887495,3.228001 18.283701,3.228001 20.778206,0 37.682606,-11.463939 37.682606,-25.555923 0,-14.091984 -16.9044,-25.5549256 -37.682606,-25.5549256 l 0,0 z"
         id="path5" />
    </g>
    <g
       transform="matrix(0.77638205,0,0,0.77638205,16.893635,41.775794)"
       id="text3003"
       style="font-size:23.70789337px;font-style:normal;font-weight:normal;line-height:125%;letter-spacing:0px;word-spacing:0px;fill:#000000;fill-opacity:1;stroke:none;font-family:Sans">
      <path
         d="m 108.32477,-36.377768 2.89237,0 0,4.243713 2.58416,0 0,2.086294 -2.58416,0 0,6.069221 c -1e-5,0.474161 0.079,0.837682 0.23708,1.090563 0.15804,0.252887 0.51366,0.379329 1.06685,0.379326 0.20546,3e-6 0.41093,-0.0158 0.61641,-0.04742 0.22126,-0.03161 0.44254,-0.06322 0.66382,-0.09483 l 0,2.370789 c -0.34772,0.07903 -0.70334,0.142248 -1.06686,0.189664 -0.36352,0.06322 -0.77446,0.09483 -1.23281,0.09483 -1.1854,0 -2.01517,-0.252884 -2.48933,-0.758652 -0.45835,-0.505768 -0.68753,-1.217004 -0.68753,-2.133711 l 0,-7.159784 -1.75438,0 0,-2.086294 1.75438,0 0,-4.243713 m -6.1922,4.243717 2.89236,0 0,11.996194 -2.89236,0 0,-11.996194 m 0,-4.883826 2.89236,0 0,2.939778 -2.89236,0 0,-2.939778 m -8.492615,7.254615 c -0.55319,1e-5 -1.011542,0.110646 -1.375058,0.331911 -0.34772,0.205477 -0.632215,0.482069 -0.853484,0.829776 -0.221277,0.347724 -0.37933,0.742855 -0.474158,1.185394 -0.09483,0.426749 -0.142251,0.853491 -0.142247,1.280227 -4e-6,0.426747 0.04741,0.861392 0.142247,1.303934 0.09483,0.426746 0.252881,0.813975 0.474158,1.161687 0.221269,0.347719 0.505764,0.632213 0.853484,0.853484 0.363516,0.205471 0.821868,0.308205 1.375058,0.308202 0.537372,3e-6 0.987822,-0.102731 1.35135,-0.308202 0.363513,-0.221271 0.65591,-0.505765 0.877192,-0.853484 0.221265,-0.347712 0.379317,-0.734941 0.474158,-1.161687 0.09482,-0.442542 0.142238,-0.877187 0.142247,-1.303934 -9e-6,-0.426736 -0.04743,-0.853478 -0.142247,-1.280227 -0.09484,-0.442539 -0.252893,-0.83767 -0.474158,-1.185394 -0.221282,-0.347707 -0.513679,-0.624299 -0.877192,-0.829776 -0.363528,-0.221265 -0.813978,-0.331901 -1.35135,-0.331911 m 2.750116,8.463718 -0.04742,0 c -0.36353,0.426743 -0.798174,0.774458 -1.303934,1.043147 -0.505776,0.26869 -1.193304,0.403034 -2.062587,0.403034 -0.774463,0 -1.485699,-0.165955 -2.13371,-0.497865 -0.632214,-0.33191 -1.177495,-0.78236 -1.635845,-1.35135 -0.458354,-0.568988 -0.813972,-1.232808 -1.066855,-1.991463 -0.252885,-0.758649 -0.379327,-1.572619 -0.379326,-2.441913 -1e-6,-0.869283 0.126441,-1.683253 0.379326,-2.441913 0.252883,-0.758644 0.608501,-1.422464 1.066855,-1.991463 0.45835,-0.568979 1.003631,-1.019428 1.635845,-1.35135 0.648011,-0.331899 1.359247,-0.497854 2.13371,-0.497866 0.71123,1.2e-5 1.34344,0.118552 1.896632,0.355618 0.568981,0.221286 1.074749,0.537391 1.517305,0.948316 l 0,-5.903265 2.892363,0 0,16.88002 -2.892363,0 0,-1.161687 m -18.791834,-4.148881 c 0.0158,0.442552 0.110633,0.845586 0.284494,1.209102 0.173854,0.363525 0.40303,0.671727 0.687529,0.924608 0.300295,0.252887 0.632205,0.450453 0.995732,0.592697 0.363515,0.14225 0.742841,0.213374 1.137979,0.213371 0.568982,3e-6 1.051042,-0.07112 1.446181,-0.213371 0.410928,-0.142244 0.750741,-0.308199 1.01944,-0.497865 0.284485,-0.18966 0.497856,-0.379323 0.640113,-0.56899 0.158042,-0.189659 0.276582,-0.331906 0.355618,-0.426742 l 2.441913,1.422474 c -0.221286,0.347718 -0.50578,0.695433 -0.853484,1.043147 -0.331922,0.347717 -0.734956,0.663822 -1.209103,0.948316 -0.474168,0.284495 -1.027351,0.513671 -1.659552,0.687529 -0.632219,0.173857 -1.35926,0.260786 -2.181126,0.260786 -0.979932,0 -1.849221,-0.158052 -2.607869,-0.474157 -0.758656,-0.316105 -1.398768,-0.750749 -1.920339,-1.303935 -0.521575,-0.568987 -0.924609,-1.232807 -1.209103,-1.991463 -0.26869,-0.774453 -0.403034,-1.612131 -0.403034,-2.513036 0,-0.900893 0.134344,-1.730669 0.403034,-2.489329 0.284494,-0.774449 0.687528,-1.438269 1.209103,-1.991463 0.521571,-0.568979 1.161683,-1.011525 1.920339,-1.327642 0.758648,-0.316093 1.627937,-0.474146 2.607869,-0.474158 0.995723,1.2e-5 1.857109,0.165967 2.58416,0.497866 0.727032,0.316116 1.327631,0.774469 1.8018,1.375058 0.474146,0.600609 0.821862,1.335553 1.043147,2.204834 0.221261,0.853491 0.331898,1.817611 0.331911,2.892363 l -8.866752,0 m 5.832141,-2.228542 c -9e-6,-0.158045 -0.05533,-0.371416 -0.165955,-0.640113 -0.09484,-0.268681 -0.252893,-0.529468 -0.474158,-0.782361 -0.221282,-0.252875 -0.505777,-0.474148 -0.853484,-0.663821 -0.331918,-0.189653 -0.742855,-0.284485 -1.23281,-0.284495 -0.85349,10e-6 -1.548921,0.237089 -2.086295,0.711237 -0.521578,0.458361 -0.861391,1.011545 -1.019439,1.659553 l 5.832141,0 m -16.442906,-4.457084 2.892363,0 0,1.659552 0.04742,0 c 0.347711,-0.69542 0.837674,-1.193286 1.46989,-1.493597 0.632204,-0.300288 1.37505,-0.450438 2.228542,-0.45045 l 0,2.939779 c -0.489971,9e-6 -0.964129,0.06323 -1.422474,0.189663 -0.442554,0.126451 -0.837685,0.331919 -1.185395,0.616405 -0.347721,0.268698 -0.624312,0.632219 -0.829776,1.090563 -0.205473,0.442555 -0.308207,0.987836 -0.308203,1.635845 l 0,5.808434 -2.892363,0 0,-11.996194 m -4.944211,0.78236 c -0.06323,-0.474146 -0.205481,-0.900888 -0.426742,-1.280226 -0.205481,-0.395119 -0.47417,-0.727029 -0.806068,-0.995732 -0.331922,-0.284481 -0.711248,-0.497851 -1.137979,-0.640113 -0.426752,-0.158038 -0.877202,-0.237064 -1.35135,-0.237079 -0.837687,1.5e-5 -1.556826,0.173872 -2.157418,0.521574 -0.600607,0.331924 -1.098472,0.782374 -1.493598,1.35135 -0.379331,0.553196 -0.663825,1.185406 -0.853484,1.896631 -0.173862,0.711247 -0.260791,1.430386 -0.260787,2.157419 -4e-6,0.742855 0.08693,1.469896 0.260787,2.181126 0.189659,0.695437 0.474153,1.327647 0.853484,1.896631 0.395126,0.553188 0.892991,1.003638 1.493598,1.35135 0.600592,0.331913 1.319731,0.497869 2.157418,0.497866 0.553174,3e-6 1.043137,-0.08693 1.469889,-0.260787 0.442537,-0.173855 0.829765,-0.410933 1.161687,-0.711237 0.331899,-0.300296 0.616393,-0.655914 0.853484,-1.066855 0.237066,-0.426737 0.434632,-0.885089 0.592697,-1.375058 l 2.892363,1.327642 c -0.679641,1.706972 -1.588443,2.971391 -2.726407,3.793263 -1.137991,0.821874 -2.552561,1.23281 -4.243713,1.232811 -1.35926,-1e-6 -2.544654,-0.237079 -3.556184,-0.711237 -0.995736,-0.474157 -1.833414,-1.11427 -2.513037,-1.920339 -0.679628,-0.821871 -1.185396,-1.770186 -1.517305,-2.844948 -0.331912,-1.074751 -0.497867,-2.204826 -0.497866,-3.390228 -1e-6,-1.185385 0.18176,-2.31546 0.545282,-3.390229 0.379324,-1.074745 0.916703,-2.015157 1.612136,-2.821239 0.695428,-0.821859 1.541009,-1.469874 2.536745,-1.944048 0.995725,-0.47414 2.1258,-0.711219 3.390229,-0.711236 1.706957,1.7e-5 3.16104,0.442564 4.362252,1.327642 1.201186,0.885109 2.007253,2.21275 2.418205,3.982926 l -3.058318,0.78236"
         id="path3022"
         style="font-variant:normal;font-weight:bold;font-stretch:normal;font-family:AkzidenzGrotesk;-inkscape-font-specification:AkzidenzGrotesk Bold" />
      <path
         d="m 116.45103,-7.655987 c -0.0632,-0.4741459 -0.20549,-0.9008879 -0.42675,-1.2802259 -0.20548,-0.395119 -0.47417,-0.727029 -0.80606,-0.995732 -0.33193,-0.2844811 -0.71125,-0.4978521 -1.13798,-0.6401131 -0.42676,-0.158038 -0.87721,-0.237065 -1.35135,-0.237079 -0.83769,1.4e-5 -1.55683,0.173872 -2.15742,0.521574 -0.60061,0.3319241 -1.09847,0.7823731 -1.4936,1.3513501 -0.37933,0.553196 -0.66383,1.1854056 -0.85348,1.8966311 -0.17387,0.7112467 -0.26079,1.4303854 -0.26079,2.1574183 0,0.742855 0.0869,1.4698964 0.26079,2.1811261 0.18965,0.6954371 0.47415,1.327647 0.85348,1.8966315 0.39513,0.553188 0.89299,1.0036375 1.4936,1.3513499 0.60059,0.3319132 1.31973,0.4978684 2.15742,0.4978659 0.55317,2.5e-6 1.04313,-0.086926 1.46989,-0.260787 0.44253,-0.1738549 0.82976,-0.4109336 1.16168,-0.7112368 0.3319,-0.3002962 0.6164,-0.6559142 0.85349,-1.0668552 0.23706,-0.4267371 0.43463,-0.8850892 0.59269,-1.3750578 l 2.89237,1.3276421 c -0.67964,1.7069712 -1.58845,2.9713909 -2.72641,3.7932629 -1.13799,0.8218737 -2.55256,1.2328101 -4.24371,1.2328105 -1.35926,-4e-7 -2.54466,-0.2370791 -3.55619,-0.7112368 -0.99573,-0.4741571 -1.83341,-1.1142696 -2.51303,-1.9203394 -0.67963,-0.8218706 -1.1854,-1.7701854 -1.51731,-2.8449472 -0.33191,-1.0747517 -0.49787,-2.2048268 -0.49787,-3.3902287 0,-1.185385 0.18176,-2.3154601 0.54529,-3.3902284 0.37932,-1.074745 0.9167,-2.0151571 1.61213,-2.8212401 0.69543,-0.821858 1.54101,-1.469873 2.53675,-1.944047 0.99572,-0.474141 2.1258,-0.711219 3.39023,-0.711237 1.70695,1.8e-5 3.16104,0.442565 4.36225,1.327642 1.20118,0.88511 2.00725,2.212751 2.4182,3.9829261 l -3.05831,0.7823609 m -16.25288,0 c -0.0632,-0.4741459 -0.205478,-0.9008879 -0.426739,-1.2802259 -0.205481,-0.395119 -0.47417,-0.727029 -0.806068,-0.995732 -0.331922,-0.2844811 -0.711248,-0.4978521 -1.137979,-0.6401131 -0.426752,-0.158038 -0.877202,-0.237065 -1.35135,-0.237079 -0.837687,1.4e-5 -1.556826,0.173872 -2.157419,0.521574 -0.600606,0.3319241 -1.098471,0.7823731 -1.493597,1.3513501 -0.379331,0.553196 -0.663825,1.1854056 -0.853484,1.8966311 -0.173862,0.7112467 -0.260791,1.4303854 -0.260787,2.1574183 -4e-6,0.742855 0.08692,1.4698964 0.260787,2.1811261 0.189659,0.6954371 0.474153,1.327647 0.853484,1.8966315 0.395126,0.553188 0.892991,1.0036375 1.493597,1.3513499 0.600593,0.3319132 1.319732,0.4978684 2.157419,0.4978659 0.553174,2.5e-6 1.043137,-0.086926 1.469889,-0.260787 0.442537,-0.1738549 0.829765,-0.4109336 1.161687,-0.7112368 0.331898,-0.3002962 0.616393,-0.6559142 0.853484,-1.0668552 0.237066,-0.4267371 0.434636,-0.8850892 0.592696,-1.3750578 l 2.89236,1.3276421 c -0.67964,1.7069712 -1.58844,2.9713909 -2.7264,3.7932629 -1.137994,0.8218737 -2.552564,1.2328101 -4.243716,1.2328105 -1.35926,-4e-7 -2.544654,-0.2370791 -3.556184,-0.7112368 C 91.924094,2.7991947 91.086416,2.1590822 90.406793,1.3530124 89.727165,0.5311418 89.221397,-0.417173 88.889488,-1.4919348 c -0.331912,-1.0747517 -0.497867,-2.2048268 -0.497866,-3.3902287 -10e-7,-1.185385 0.18176,-2.3154601 0.545282,-3.3902284 0.379324,-1.074745 0.916703,-2.0151571 1.612136,-2.8212401 0.695428,-0.821858 1.541009,-1.469873 2.536745,-1.944047 0.995725,-0.474141 2.1258,-0.711219 3.390229,-0.711237 1.706957,1.8e-5 3.16104,0.442565 4.362256,1.327642 1.20118,0.88511 2.00725,2.212751 2.4182,3.9829261 l -3.05832,0.7823609 M 76.95886,4.6247018 c -0.173865,0.5531825 -0.37143,1.0115347 -0.592697,1.3750578 -0.205475,0.3793235 -0.458359,0.6796231 -0.758653,0.9008999 -0.2845,0.2370754 -0.624313,0.4030305 -1.019439,0.4978658 -0.395136,0.094828 -0.853488,0.1422434 -1.375058,0.1422473 -0.363524,-3.9e-6 -0.679629,-0.015809 -0.948316,-0.047416 -0.252886,-0.031614 -0.513673,-0.071128 -0.78236,-0.1185395 l 0,-2.5841604 c 0.142246,0.031609 0.300298,0.055317 0.474158,0.071124 0.173855,0.015804 0.395129,0.023707 0.663821,0.023708 0.458349,-1.3e-6 0.798162,-0.079028 1.019439,-0.2370789 0.22127,-0.1422484 0.418835,-0.4030349 0.592697,-0.7823605 l -4.314836,-12.3043972 3.105734,0 2.58416,8.7245052 0.04742,0 2.25225,-8.7245052 2.987195,0 -3.935511,13.0630498 m -26.224268,-13.0630498 2.892363,0 0,1.1853951 c 0.442543,-0.4583414 0.932505,-0.8139591 1.469889,-1.0668551 0.553178,-0.268677 1.216999,-0.403022 1.991463,-0.403034 0.347708,1.2e-5 0.703326,0.03162 1.066856,0.09483 0.363511,0.06323 0.703324,0.165968 1.019439,0.308203 0.316095,0.142259 0.600589,0.331922 0.853484,0.5689893 0.252873,0.2212848 0.450439,0.4978766 0.592697,0.8297763 0.442536,-0.5847836 0.964109,-1.0273306 1.564721,-1.3276416 0.616392,-0.316094 1.327628,-0.474146 2.133711,-0.474158 1.31182,1.2e-5 2.339161,0.316117 3.082026,0.9483154 0.742828,0.6322212 1.114252,1.5963413 1.114271,2.892363 l 0,8.4400101 -2.892363,0 0,-7.2783233 c -1.6e-5,-0.6954236 -0.158069,-1.2565098 -0.474158,-1.6832604 -0.316121,-0.442538 -0.813986,-0.6638114 -1.493597,-0.663821 -0.410951,9.6e-6 -0.774472,0.094841 -1.090563,0.2844947 -0.316118,0.173867 -0.584808,0.4188483 -0.806069,0.7349447 -0.221286,0.3003083 -0.395143,0.6480237 -0.521573,1.0431473 -0.110649,0.3951387 -0.165967,0.8060751 -0.165956,1.2328103 l 0,6.3300077 -2.892363,0 0,-7.2783233 c -8e-6,-0.6954236 -0.158061,-1.2565098 -0.474157,-1.6832604 -0.316114,-0.442538 -0.829784,-0.6638114 -1.541013,-0.663821 -0.395138,9.6e-6 -0.750757,0.094841 -1.066856,0.2844947 -0.300305,0.173867 -0.561092,0.4188483 -0.78236,0.7349447 -0.221279,0.3003083 -0.395136,0.6480237 -0.521574,1.0431473 -0.110641,0.3951387 -0.165959,0.8060751 -0.165955,1.2328103 l 0,6.3300077 -2.892363,0 0,-11.9961945"
         id="path3030"
         style="font-variant:normal;font-weight:bold;font-stretch:normal;font-family:AkzidenzGrotesk;-inkscape-font-specification:AkzidenzGrotesk Bold" />
    </g>
  </g>
</svg>
